<svg width="444" height="182" viewBox="0 0 444 182" fill="none" xmlns="http://www.w3.org/2000/svg">
<g clip-path="url(#clip0_7_2)">
<path d="M215.79 58.28C215.176 58.28 214.443 57.7733 213.59 56.76C212.736 55.72 212.31 54.88 212.31 54.24C212.31 53.6 212.63 52.28 213.27 50.28C215.243 44.1467 216.296 38.7733 216.43 34.16C215.523 33.2 215.07 32.44 215.07 31.88C215.07 31 216.11 30.1733 218.19 29.4C220.296 28.6 222.296 28.2 224.19 28.2C227.39 28.2 229.91 28.9467 231.75 30.44C233.616 31.9333 234.55 33.84 234.55 36.16C234.55 39.12 233.096 41.8 230.19 44.2C227.31 46.6 223.67 48.24 219.27 49.12C218.016 53.6267 217.19 56.28 216.79 57.08C216.416 57.88 216.083 58.28 215.79 58.28ZM228.87 36.28C228.87 35.4267 228.563 34.7333 227.95 34.2C227.336 33.64 226.51 33.36 225.47 33.36C224.43 33.36 222.99 33.8533 221.15 34.84C221.683 35.7733 221.95 36.6133 221.95 37.36C221.95 38.8267 221.563 41 220.79 43.88C223.19 42.92 225.136 41.7733 226.63 40.44C228.123 39.08 228.87 37.6933 228.87 36.28ZM251.383 47.16C251.863 47.5867 252.103 47.9733 252.103 48.32C252.103 48.6667 251.943 49.3867 251.623 50.48C251.303 51.5733 251.089 52.4267 250.983 53.04C250.876 53.6267 250.783 54.0933 250.703 54.44C250.649 54.7867 250.609 55.0667 250.583 55.28C250.556 55.4667 250.503 55.7067 250.423 56C250.369 56.2933 250.316 56.5333 250.263 56.72C250.236 56.88 250.183 57.08 250.103 57.32C250.049 57.5333 249.983 57.7067 249.903 57.84C249.823 57.9467 249.729 58.0667 249.623 58.2C249.463 58.4133 249.196 58.52 248.823 58.52C248.449 58.52 247.983 58.1467 247.423 57.4C246.889 56.6533 246.489 55.7467 246.223 54.68C243.716 57.24 241.609 58.52 239.903 58.52C238.756 58.52 237.516 57.8933 236.183 56.64C234.849 55.36 234.183 54.0933 234.183 52.84C234.183 51.56 234.756 49.7467 235.903 47.4C237.049 45.0533 238.609 42.88 240.583 40.88C242.583 38.88 244.556 37.88 246.503 37.88C247.623 37.88 248.916 38.5333 250.383 39.84C251.849 41.1467 252.583 42.3467 252.583 43.44C252.583 44.5067 252.183 45.7467 251.383 47.16ZM239.743 53.48C240.809 53.48 242.223 52.76 243.983 51.32C245.769 49.8533 246.876 48.0133 247.303 45.8C247.329 45.48 247.556 45.2933 247.983 45.24C247.903 43.72 247.649 42.96 247.223 42.96C246.156 42.96 244.956 43.6533 243.623 45.04C242.316 46.4267 241.236 47.9067 240.383 49.48C239.556 51.0533 239.143 52.2133 239.143 52.96C239.143 53.1733 239.169 53.32 239.223 53.4C239.303 53.4533 239.476 53.48 239.743 53.48ZM265.133 42.64C264.92 43.36 264.6 44.3733 264.173 45.68C263.773 46.96 263.267 48.5733 262.653 50.52C262.067 52.4667 261.773 53.5067 261.773 53.64C261.773 53.7467 261.987 53.8 262.413 53.8C262.867 53.8 263.92 53.5067 265.573 52.92C267.227 52.3067 268.2 52 268.493 52C269.16 52 269.493 52.4533 269.493 53.36C269.493 54.2667 268.6 55.36 266.813 56.64C265.027 57.8933 263.16 58.52 261.213 58.52C260.36 58.52 259.347 58.0533 258.173 57.12C257 56.1867 256.413 55.24 256.413 54.28C256.413 53.48 256.813 51.8 257.613 49.24C258.44 46.6533 259 44.88 259.293 43.92C258.253 44.2133 257.467 44.36 256.933 44.36C256.4 44.36 255.84 44 255.253 43.28C254.667 42.5333 254.373 41.8267 254.373 41.16C254.373 40.3067 256.44 39.5867 260.573 39C261.08 36.52 261.333 34.3733 261.333 32.56C261.333 31.76 261.733 31.36 262.533 31.36C263.227 31.36 264.107 31.7867 265.173 32.64C266.267 33.4667 266.813 34.2933 266.813 35.12C266.813 35.92 266.64 37.0533 266.293 38.52C267.573 38.4667 268.547 38.44 269.213 38.44C271.213 38.44 272.213 38.8933 272.213 39.8C272.213 40.3867 271.627 40.8933 270.453 41.32C269.307 41.72 267.533 42.16 265.133 42.64ZM277.82 28.36C277.82 27.24 278.26 26.68 279.14 26.68C279.86 26.68 280.687 27.28 281.62 28.48C282.554 29.68 283.02 30.7067 283.02 31.56C283.02 32.4133 282.847 33.6133 282.5 35.16C282.154 36.7067 281.794 38.12 281.42 39.4C281.074 40.68 280.54 42.5067 279.82 44.88C279.1 47.2267 278.607 48.8667 278.34 49.8C280.074 46.28 281.9 43.4133 283.82 41.2C285.767 38.9867 287.394 37.88 288.7 37.88C289.527 37.88 290.474 38.6133 291.54 40.08C292.607 41.52 293.14 42.8267 293.14 44C293.14 45.1467 292.927 46.8267 292.5 49.04C292.074 51.2533 291.327 53.3867 290.26 55.44C289.194 57.4933 288.1 58.52 286.98 58.52C286.1 58.52 285.66 57.8933 285.66 56.64C285.66 55.7333 285.927 54.2533 286.46 52.2C287.234 49.1333 287.62 47.2667 287.62 46.6C287.62 45.9333 287.514 45.6 287.3 45.6C285.754 45.6 283.487 48.1733 280.5 53.32C279.487 55.08 278.634 56.3867 277.94 57.24C277.274 58.0933 276.634 58.52 276.02 58.52C275.407 58.52 274.66 58.0267 273.78 57.04C272.927 56.0533 272.5 55.2933 272.5 54.76C272.5 54.2 272.607 53.3867 272.82 52.32C273.06 51.2533 273.407 49.7333 273.86 47.76C274.34 45.7867 275.114 42.2133 276.18 37.04C277.274 31.84 277.82 28.9467 277.82 28.36ZM308.679 32.24C308.039 32.24 307.466 32.9733 306.959 34.44C306.453 35.9067 305.906 37.9467 305.319 40.56C307.773 40.4 310.159 40.32 312.479 40.32C314.479 40.32 315.479 41.0533 315.479 42.52C315.479 43.16 315.293 44.04 314.919 45.16C314.546 46.2533 313.946 47.9333 313.119 50.2C312.319 52.4667 311.586 54.7067 310.919 56.92C310.733 57.56 310.493 57.9867 310.199 58.2C309.906 58.3867 309.453 58.48 308.839 58.48C308.253 58.48 307.759 58.2267 307.359 57.72C306.959 57.2133 306.759 56.5733 306.759 55.8C306.759 55 307.133 53.0933 307.879 50.08C308.653 47.0667 309.093 45.24 309.199 44.6C308.506 44.6533 306.839 44.8933 304.199 45.32C302.839 51.1067 301.879 54.7467 301.319 56.24C300.786 57.7333 300.186 58.48 299.519 58.48C299.066 58.48 298.493 58.08 297.799 57.28C297.106 56.4533 296.759 55.8133 296.759 55.36C296.759 54.88 296.853 54.36 297.039 53.8C297.839 51.5067 298.493 48.9867 298.999 46.24C298.013 46.4 297.213 46.48 296.599 46.48C296.013 46.48 295.426 46.16 294.839 45.52C294.253 44.88 293.959 44.1867 293.959 43.44C293.959 42.9333 294.413 42.4933 295.319 42.12C296.253 41.7467 297.773 41.4 299.879 41.08C300.759 36.04 301.853 32.4933 303.159 30.44C304.466 28.3867 306.399 27.36 308.959 27.36C310.399 27.36 311.999 27.96 313.759 29.16C315.546 30.36 316.439 31.7467 316.439 33.32C316.439 34.4133 316.266 35.2933 315.919 35.96C315.573 36.6 315.119 36.92 314.559 36.92C313.999 36.92 313.426 36.68 312.839 36.2C312.253 35.6933 311.746 35.16 311.319 34.6C310.119 33.0267 309.239 32.24 308.679 32.24ZM330.783 37.88C332.169 37.88 333.383 38.5067 334.423 39.76C335.489 40.9867 336.023 42.3067 336.023 43.72C336.023 45.9867 335.649 48.36 334.903 50.84C334.183 53.2933 333.383 55.1867 332.503 56.52C331.649 57.8533 330.769 58.52 329.863 58.52C328.983 58.52 328.543 57.8933 328.543 56.64C328.543 55.68 328.983 53.7467 329.863 50.84C330.529 48.44 330.863 46.72 330.863 45.68C330.863 44.64 330.729 44.12 330.463 44.12C330.116 44.12 329.769 44.2933 329.423 44.64C329.103 44.9867 328.836 45.2933 328.623 45.56C328.409 45.8267 328.156 46.1733 327.863 46.6C327.596 47 327.356 47.3733 327.143 47.72C326.956 48.04 326.703 48.4667 326.383 49C326.089 49.5067 325.849 49.9333 325.663 50.28C325.476 50.6 325.236 51.0267 324.943 51.56C322.463 56.2 320.516 58.52 319.103 58.52C318.543 58.52 317.836 58.04 316.983 57.08C316.129 56.0933 315.703 55.3733 315.703 54.92C315.703 54.6267 315.889 54 316.263 53.04C316.663 52.0533 316.943 51.3067 317.103 50.8C317.289 50.2667 317.436 49.7067 317.543 49.12C317.676 48.5333 317.783 47.9067 317.863 47.24C317.943 46.5467 317.996 46.0133 318.023 45.64C318.076 45.2667 318.129 44.68 318.183 43.88C318.423 40.4133 318.623 38.4933 318.783 38.12C318.969 37.7467 319.169 37.56 319.383 37.56C320.396 37.56 321.369 37.9867 322.303 38.84C323.236 39.6667 323.703 40.4267 323.703 41.12C323.703 42.7733 323.276 45.1467 322.423 48.24C324.156 45.2 325.729 42.72 327.143 40.8C328.583 38.8533 329.796 37.88 330.783 37.88ZM355.291 26.68C355.931 26.68 356.771 27.2667 357.811 28.44C358.851 29.5867 359.371 30.6667 359.371 31.68C359.371 32.1867 358.904 34.2933 357.971 38C357.038 41.7067 356.478 43.9467 356.291 44.72C354.158 53.92 352.598 58.52 351.611 58.52C351.051 58.52 350.424 58.1867 349.731 57.52C349.038 56.8533 348.691 56.2 348.691 55.56C348.691 55.4267 348.704 55.32 348.731 55.24C346.064 57.4267 344.144 58.52 342.971 58.52C341.824 58.52 340.704 57.9067 339.611 56.68C338.544 55.4267 338.011 54.2933 338.011 53.28C338.011 52.2667 338.144 51.1467 338.411 49.92C338.704 48.6667 339.144 47.3467 339.731 45.96C340.318 44.5733 340.984 43.28 341.731 42.08C342.504 40.8533 343.424 39.8533 344.491 39.08C345.584 38.28 346.704 37.88 347.851 37.88C349.558 37.88 350.958 38.7467 352.051 40.48C353.491 34.16 354.184 29.96 354.131 27.88C354.131 27.08 354.518 26.68 355.291 26.68ZM343.491 53.44C344.158 53.44 345.278 52.8667 346.851 51.72C348.451 50.5733 349.638 49.12 350.411 47.36C350.384 47.1467 350.371 46.68 350.371 45.96C350.371 45.24 350.131 44.56 349.651 43.92C349.171 43.28 348.731 42.96 348.331 42.96C347.531 42.96 346.758 43.3867 346.011 44.24C345.291 45.0933 344.718 46.1067 344.291 47.28C343.384 49.76 342.931 51.64 342.931 52.92C342.931 53.1333 342.958 53.28 343.011 53.36C343.091 53.4133 343.251 53.44 343.491 53.44ZM363.693 32.88C363.693 32.1867 364 31.48 364.613 30.76C365.253 30.0133 365.867 29.64 366.453 29.64C367.067 29.64 367.787 30.36 368.613 31.8C369.44 33.24 369.853 34.2933 369.853 34.96C369.853 35.6 369.64 36.0933 369.213 36.44C368.787 36.7867 368.347 36.96 367.893 36.96C367.12 36.96 366.227 36.4533 365.213 35.44C364.2 34.4267 363.693 33.5733 363.693 32.88ZM364.293 37.88C365.227 37.88 366.053 38.4133 366.773 39.48C367.52 40.5467 367.893 41.5733 367.893 42.56C367.893 43.0667 367.427 44.8933 366.493 48.04C365.587 51.16 364.68 54.12 363.773 56.92C363.453 57.96 362.8 58.48 361.813 58.48C361.227 58.48 360.707 58.2667 360.253 57.84C359.827 57.3867 359.613 56.8133 359.613 56.12C359.613 55.4 359.947 53.64 360.613 50.84C361.307 48.0133 361.827 45.6133 362.173 43.64C362.547 41.64 362.88 40.1867 363.173 39.28C363.493 38.3467 363.867 37.88 364.293 37.88ZM384.884 37.88C386.271 37.88 387.484 38.5067 388.524 39.76C389.591 40.9867 390.124 42.3067 390.124 43.72C390.124 45.9867 389.751 48.36 389.004 50.84C388.284 53.2933 387.484 55.1867 386.604 56.52C385.751 57.8533 384.871 58.52 383.964 58.52C383.084 58.52 382.644 57.8933 382.644 56.64C382.644 55.68 383.084 53.7467 383.964 50.84C384.631 48.44 384.964 46.72 384.964 45.68C384.964 44.64 384.831 44.12 384.564 44.12C384.217 44.12 383.871 44.2933 383.524 44.64C383.204 44.9867 382.937 45.2933 382.724 45.56C382.511 45.8267 382.257 46.1733 381.964 46.6C381.697 47 381.457 47.3733 381.244 47.72C381.057 48.04 380.804 48.4667 380.484 49C380.191 49.5067 379.951 49.9333 379.764 50.28C379.577 50.6 379.337 51.0267 379.044 51.56C376.564 56.2 374.617 58.52 373.204 58.52C372.644 58.52 371.937 58.04 371.084 57.08C370.231 56.0933 369.804 55.3733 369.804 54.92C369.804 54.6267 369.991 54 370.364 53.04C370.764 52.0533 371.044 51.3067 371.204 50.8C371.391 50.2667 371.537 49.7067 371.644 49.12C371.777 48.5333 371.884 47.9067 371.964 47.24C372.044 46.5467 372.097 46.0133 372.124 45.64C372.177 45.2667 372.231 44.68 372.284 43.88C372.524 40.4133 372.724 38.4933 372.884 38.12C373.071 37.7467 373.271 37.56 373.484 37.56C374.497 37.56 375.471 37.9867 376.404 38.84C377.337 39.6667 377.804 40.4267 377.804 41.12C377.804 42.7733 377.377 45.1467 376.524 48.24C378.257 45.2 379.831 42.72 381.244 40.8C382.684 38.8533 383.897 37.88 384.884 37.88ZM408.113 46.52C408.513 46.9733 408.713 47.52 408.713 48.16C408.713 48.8 408.446 49.5867 407.913 50.52C407.246 52.12 406.659 54.1067 406.153 56.48C405.646 58.8533 405.139 60.7467 404.633 62.16C404.153 63.6 403.619 64.8267 403.033 65.84C402.473 66.8533 401.699 67.6933 400.713 68.36C399.726 69.0267 398.593 69.36 397.313 69.36C395.526 69.36 393.926 68.7733 392.513 67.6C391.099 66.4267 390.392 65.4133 390.392 64.56C390.392 63.7333 390.619 62.9733 391.072 62.28C391.526 61.6133 391.939 61.28 392.313 61.28C392.713 61.28 393.086 61.4933 393.433 61.92C393.806 62.3467 394.139 62.8 394.433 63.28C394.753 63.7867 395.166 64.2533 395.673 64.68C396.179 65.1067 396.739 65.32 397.353 65.32C397.966 65.32 398.526 64.92 399.033 64.12C399.539 63.32 399.926 62.4533 400.193 61.52C400.859 59.3333 401.273 57.7733 401.433 56.84C399.619 57.96 398.139 58.52 396.993 58.52C395.873 58.52 394.779 57.9067 393.713 56.68C392.646 55.4267 392.113 54.2533 392.113 53.16C392.113 52.04 392.406 50.6533 392.993 49C393.606 47.32 394.379 45.6533 395.313 44C396.273 42.32 397.473 40.88 398.913 39.68C400.379 38.48 401.846 37.88 403.313 37.88C404.299 37.88 405.139 38.1333 405.833 38.64C406.526 39.12 407.033 39.7733 407.353 40.6C407.913 42.04 408.193 43.6667 408.193 45.48C408.193 45.7467 408.166 46.0933 408.113 46.52ZM397.033 52.96C397.033 53.3067 397.179 53.48 397.473 53.48C398.246 53.48 399.499 52.7733 401.233 51.36C402.966 49.9467 404.126 48.5467 404.713 47.16V46.4C404.713 44.6667 404.553 43.6133 404.233 43.24C404.073 43.0533 403.859 42.96 403.593 42.96C402.313 42.96 400.899 44.3067 399.353 47C397.806 49.6933 397.033 51.68 397.033 52.96ZM236.243 87.48C237.309 87.48 238.069 87.5867 238.523 87.8C239.003 87.9867 239.243 88.3467 239.243 88.88C239.243 89.6 238.083 90.3333 235.763 91.08C235.816 93.1067 235.843 95.0533 235.843 96.92C235.843 98.76 235.696 100.147 235.403 101.08C235.109 101.987 234.643 102.44 234.003 102.44C233.363 102.44 232.856 102.12 232.483 101.48C232.136 100.813 231.843 99.7333 231.603 98.24C231.389 96.7467 231.163 94.7733 230.923 92.32C228.203 92.9333 226.243 93.4267 225.043 93.8C222.963 99.56 221.576 102.44 220.883 102.44C220.323 102.44 219.576 102.067 218.643 101.32C217.736 100.573 217.283 99.8 217.283 99C217.283 98.5467 217.803 97.1333 218.843 94.76C218.389 94.4667 217.989 94.0533 217.643 93.52C217.323 92.96 217.163 92.4267 217.163 91.92C217.163 91.04 218.483 90.2 221.123 89.4C221.336 88.8667 221.549 88.2667 221.763 87.6C222.003 86.9067 222.576 85.3067 223.483 82.8C224.416 80.2933 225.149 78.2 225.683 76.52C225.923 75.72 226.749 74.9733 228.163 74.28C229.603 73.5867 230.723 73.24 231.523 73.24C232.456 73.24 233.283 74.5333 234.003 77.12C234.749 79.7067 235.269 83.16 235.563 87.48H236.243ZM227.003 88.16C227.803 88.0533 228.963 87.92 230.483 87.76C230.403 86.9867 230.269 85.6667 230.083 83.8C229.923 81.9333 229.803 80.5867 229.723 79.76C229.269 81.2533 228.363 84.0533 227.003 88.16ZM247.718 70.68C248.358 70.68 249.185 71.2667 250.198 72.44C251.211 73.6133 251.718 74.7333 251.718 75.8C251.718 76.8667 251.558 78.7733 251.238 81.52C250.918 84.24 250.585 86.4133 250.238 88.04C248.025 97.6933 246.478 102.52 245.598 102.52C245.011 102.52 244.278 102.053 243.398 101.12C242.545 100.16 242.118 99.3733 242.118 98.76C242.118 98.7067 242.478 97.32 243.198 94.6C243.918 91.88 244.638 88.3867 245.358 84.12C246.105 79.8267 246.478 75.7333 246.478 71.84C246.478 71.0667 246.891 70.68 247.718 70.68ZM268.503 90.52C268.903 90.9733 269.103 91.52 269.103 92.16C269.103 92.8 268.836 93.5867 268.303 94.52C267.636 96.12 267.05 98.1067 266.543 100.48C266.036 102.853 265.53 104.747 265.023 106.16C264.543 107.6 264.01 108.827 263.423 109.84C262.863 110.853 262.09 111.693 261.103 112.36C260.116 113.027 258.983 113.36 257.703 113.36C255.916 113.36 254.316 112.773 252.903 111.6C251.49 110.427 250.783 109.413 250.783 108.56C250.783 107.733 251.01 106.973 251.463 106.28C251.916 105.613 252.33 105.28 252.703 105.28C253.103 105.28 253.476 105.493 253.823 105.92C254.196 106.347 254.53 106.8 254.823 107.28C255.143 107.787 255.556 108.253 256.063 108.68C256.57 109.107 257.13 109.32 257.743 109.32C258.356 109.32 258.916 108.92 259.423 108.12C259.93 107.32 260.316 106.453 260.583 105.52C261.25 103.333 261.663 101.773 261.823 100.84C260.01 101.96 258.53 102.52 257.383 102.52C256.263 102.52 255.17 101.907 254.103 100.68C253.036 99.4267 252.503 98.2533 252.503 97.16C252.503 96.04 252.796 94.6533 253.383 93C253.996 91.32 254.77 89.6533 255.703 88C256.663 86.32 257.863 84.88 259.303 83.68C260.77 82.48 262.236 81.88 263.703 81.88C264.69 81.88 265.53 82.1333 266.223 82.64C266.916 83.12 267.423 83.7733 267.743 84.6C268.303 86.04 268.583 87.6667 268.583 89.48C268.583 89.7467 268.556 90.0933 268.503 90.52ZM257.423 96.96C257.423 97.3067 257.57 97.48 257.863 97.48C258.636 97.48 259.89 96.7733 261.623 95.36C263.356 93.9467 264.516 92.5467 265.103 91.16V90.4C265.103 88.6667 264.943 87.6133 264.623 87.24C264.463 87.0533 264.25 86.96 263.983 86.96C262.703 86.96 261.29 88.3067 259.743 91C258.196 93.6933 257.423 95.68 257.423 96.96ZM277.601 98.44C279.041 97.8 280.294 96.5067 281.361 94.56C282.428 92.6133 282.961 90.7867 282.961 89.08C282.961 87.3733 282.721 86.2 282.241 85.56C281.094 86.2267 279.948 87.6267 278.801 89.76C277.681 91.8933 277.121 93.7733 277.121 95.4C277.121 97 277.281 98.0133 277.601 98.44ZM271.761 95.8C271.761 92.4667 272.788 89.3067 274.841 86.32C276.921 83.3333 278.974 81.84 281.001 81.84C283.028 81.84 284.734 82.56 286.121 84C287.508 85.4133 288.201 87.1333 288.201 89.16C288.201 91.16 287.721 93.2 286.761 95.28C285.801 97.36 284.454 99.0933 282.721 100.48C280.988 101.84 279.134 102.52 277.161 102.52C275.694 102.52 274.428 101.867 273.361 100.56C272.294 99.2533 271.761 97.6667 271.761 95.8ZM292.403 88.64L292.163 84.12C292.163 82.6267 292.63 81.88 293.563 81.88C294.096 81.88 294.616 82.08 295.123 82.48C295.656 82.88 296.056 83.5067 296.323 84.36C297.23 83.56 298.216 82.92 299.283 82.44C300.376 81.9333 301.336 81.68 302.163 81.68C304.11 81.68 305.083 82.1467 305.083 83.08C305.083 83.56 304.99 83.92 304.803 84.16C304.643 84.3733 304.51 84.5333 304.403 84.64C304.323 84.7467 304.163 84.8933 303.923 85.08C303.71 85.24 303.55 85.36 303.443 85.44C302.83 85.84 302.39 86.12 302.123 86.28C300.923 87.0267 299.896 87.9333 299.043 89C298.19 90.04 297.55 91.4933 297.123 93.36C296.403 96.4267 295.696 98.72 295.003 100.24C294.336 101.733 293.576 102.48 292.723 102.48C291.896 102.48 291.27 102.08 290.843 101.28C290.443 100.48 290.243 99.7333 290.243 99.04C290.243 98.32 290.496 97.2533 291.003 95.84C291.536 94.4267 291.896 93.2133 292.083 92.2C292.296 91.16 292.403 89.9733 292.403 88.64ZM308.615 76.88C308.615 76.1867 308.922 75.48 309.535 74.76C310.175 74.0133 310.789 73.64 311.375 73.64C311.989 73.64 312.709 74.36 313.535 75.8C314.362 77.24 314.775 78.2933 314.775 78.96C314.775 79.6 314.562 80.0933 314.135 80.44C313.709 80.7867 313.269 80.96 312.815 80.96C312.042 80.96 311.149 80.4533 310.135 79.44C309.122 78.4267 308.615 77.5733 308.615 76.88ZM309.215 81.88C310.149 81.88 310.975 82.4133 311.695 83.48C312.442 84.5467 312.815 85.5733 312.815 86.56C312.815 87.0667 312.349 88.8933 311.415 92.04C310.509 95.16 309.602 98.12 308.695 100.92C308.375 101.96 307.722 102.48 306.735 102.48C306.149 102.48 305.629 102.267 305.175 101.84C304.749 101.387 304.535 100.813 304.535 100.12C304.535 99.4 304.869 97.64 305.535 94.84C306.229 92.0133 306.749 89.6133 307.095 87.64C307.469 85.64 307.802 84.1867 308.095 83.28C308.415 82.3467 308.789 81.88 309.215 81.88ZM325.446 86.64C325.233 87.36 324.913 88.3733 324.486 89.68C324.086 90.96 323.579 92.5733 322.966 94.52C322.379 96.4667 322.086 97.5067 322.086 97.64C322.086 97.7467 322.299 97.8 322.726 97.8C323.179 97.8 324.233 97.5067 325.886 96.92C327.539 96.3067 328.513 96 328.806 96C329.473 96 329.806 96.4533 329.806 97.36C329.806 98.2667 328.913 99.36 327.126 100.64C325.339 101.893 323.473 102.52 321.526 102.52C320.673 102.52 319.659 102.053 318.486 101.12C317.313 100.187 316.726 99.24 316.726 98.28C316.726 97.48 317.126 95.8 317.926 93.24C318.753 90.6533 319.313 88.88 319.606 87.92C318.566 88.2133 317.779 88.36 317.246 88.36C316.713 88.36 316.153 88 315.566 87.28C314.979 86.5333 314.686 85.8267 314.686 85.16C314.686 84.3067 316.753 83.5867 320.886 83C321.393 80.52 321.646 78.3733 321.646 76.56C321.646 75.76 322.046 75.36 322.846 75.36C323.539 75.36 324.419 75.7867 325.486 76.64C326.579 77.4667 327.126 78.2933 327.126 79.12C327.126 79.92 326.953 81.0533 326.606 82.52C327.886 82.4667 328.859 82.44 329.526 82.44C331.526 82.44 332.526 82.8933 332.526 83.8C332.526 84.3867 331.939 84.8933 330.766 85.32C329.619 85.72 327.846 86.16 325.446 86.64ZM338.133 72.36C338.133 71.24 338.573 70.68 339.453 70.68C340.173 70.68 340.999 71.28 341.933 72.48C342.866 73.68 343.333 74.7067 343.333 75.56C343.333 76.4133 343.159 77.6133 342.813 79.16C342.466 80.7067 342.106 82.12 341.733 83.4C341.386 84.68 340.853 86.5067 340.133 88.88C339.413 91.2267 338.919 92.8667 338.653 93.8C340.386 90.28 342.213 87.4133 344.133 85.2C346.079 82.9867 347.706 81.88 349.013 81.88C349.839 81.88 350.786 82.6133 351.853 84.08C352.919 85.52 353.453 86.8267 353.453 88C353.453 89.1467 353.239 90.8267 352.813 93.04C352.386 95.2533 351.639 97.3867 350.573 99.44C349.506 101.493 348.413 102.52 347.293 102.52C346.413 102.52 345.973 101.893 345.973 100.64C345.973 99.7333 346.239 98.2533 346.773 96.2C347.546 93.1333 347.933 91.2667 347.933 90.6C347.933 89.9333 347.826 89.6 347.613 89.6C346.066 89.6 343.799 92.1733 340.813 97.32C339.799 99.08 338.946 100.387 338.253 101.24C337.586 102.093 336.946 102.52 336.333 102.52C335.719 102.52 334.973 102.027 334.093 101.04C333.239 100.053 332.813 99.2933 332.813 98.76C332.813 98.2 332.919 97.3867 333.133 96.32C333.373 95.2533 333.719 93.7333 334.173 91.76C334.653 89.7867 335.426 86.2133 336.493 81.04C337.586 75.84 338.133 72.9467 338.133 72.36ZM382.592 81.88C383.632 81.88 384.499 82.5733 385.192 83.96C385.885 85.3467 386.232 86.6133 386.232 87.76C386.232 88.9067 386.005 90.6133 385.552 92.88C385.125 95.12 384.432 97.2933 383.472 99.4C382.539 101.48 381.525 102.52 380.432 102.52C379.552 102.52 379.112 101.92 379.112 100.72C379.112 99.52 379.459 97.56 380.152 94.84C380.845 92.12 381.192 90.3333 381.192 89.48C381.192 88.6267 381.059 88.2 380.792 88.2C380.232 88.2 379.565 88.8133 378.792 90.04C378.019 91.2667 377.085 92.9067 375.992 94.96C374.925 97.0133 374.259 98.3333 373.992 98.92C373.725 99.5067 373.499 99.9733 373.312 100.32C373.152 100.667 372.965 101.027 372.752 101.4C371.899 102.813 370.765 102.813 369.352 101.4C368.632 100.68 368.272 100.027 368.272 99.44C368.272 99.3333 368.485 98.32 368.912 96.4C369.365 94.4533 369.592 92.24 369.592 89.76C369.592 88.72 369.472 88.2 369.232 88.2C368.912 88.2 368.539 88.52 368.112 89.16C367.685 89.8 367.032 90.96 366.152 92.64C365.272 94.32 364.512 95.7067 363.872 96.8C361.632 100.613 359.925 102.52 358.752 102.52C358.165 102.52 357.432 102.027 356.552 101.04C355.699 100.053 355.272 99.3067 355.272 98.8C355.272 98.2667 355.565 97.0133 356.152 95.04C356.765 93.04 357.152 90.92 357.312 88.68C357.499 86.44 357.659 84.6933 357.792 83.44C357.952 82.1867 358.272 81.56 358.752 81.56C359.765 81.56 360.739 81.9867 361.672 82.84C362.632 83.6667 363.112 84.4267 363.112 85.12C363.112 86.6933 362.539 89.44 361.392 93.36C363.259 88.9067 364.832 85.8933 366.112 84.32C367.472 82.6933 368.779 81.88 370.032 81.88C370.725 81.88 371.579 82.52 372.592 83.8C373.632 85.08 374.152 86.28 374.152 87.4C374.152 88.4933 374.139 89.4533 374.112 90.28C374.939 88.2 376.192 86.28 377.872 84.52C379.552 82.76 381.125 81.88 382.592 81.88ZM401.205 81.92C402.219 81.92 403.219 82.52 404.205 83.72C405.192 84.92 405.685 86 405.685 86.96C405.685 87.6 405.405 87.92 404.845 87.92C404.525 87.92 404.059 87.8 403.445 87.56C402.832 87.2933 402.205 87.16 401.565 87.16C400.952 87.16 400.032 87.3733 398.805 87.8C397.605 88.2267 397.005 88.7867 397.005 89.48C397.005 89.7467 397.365 90.1333 398.085 90.64C398.805 91.1467 399.592 91.6667 400.445 92.2C401.299 92.7333 402.085 93.48 402.805 94.44C403.525 95.3733 403.885 96.4 403.885 97.52C403.885 98.6133 403.072 99.72 401.445 100.84C399.845 101.96 397.952 102.52 395.765 102.52C393.605 102.52 391.752 102.027 390.205 101.04C388.659 100.053 387.885 99.04 387.885 98C387.885 96.96 388.312 96.44 389.165 96.44C389.512 96.44 389.925 96.5733 390.405 96.84C391.739 97.6133 393.392 98 395.365 98C397.365 98 398.365 97.7333 398.365 97.2C398.365 96.6667 397.979 96.08 397.205 95.44C396.459 94.7733 395.632 94.16 394.725 93.6C393.845 93.04 393.019 92.36 392.245 91.56C391.499 90.7333 391.125 89.9333 391.125 89.16C391.125 87.72 392.432 86.16 395.045 84.48C397.659 82.7733 399.712 81.92 401.205 81.92ZM249.253 117.2C250 117.2 250.747 117.48 251.493 118.04C252.267 118.573 252.653 119.093 252.653 119.6C252.653 120.107 252.547 120.667 252.333 121.28C252.147 121.893 251.827 122.667 251.373 123.6C250.947 124.507 250.507 125.4 250.053 126.28C249.627 127.133 249.053 128.267 248.333 129.68C247.613 131.067 246.987 132.307 246.453 133.4C245.92 134.493 245.32 135.787 244.653 137.28C244.013 138.773 243.48 140 243.053 140.96C242.627 141.893 242.173 142.813 241.693 143.72C240.76 145.533 239.853 146.44 238.973 146.44C238.573 146.44 238.013 146.147 237.293 145.56C236.6 144.973 236.133 144.387 235.893 143.8C235.12 141.747 234.093 137.467 232.813 130.96C231.533 124.453 230.893 120.533 230.893 119.2C230.893 117.867 231.253 117.2 231.973 117.2C232.88 117.2 233.813 117.587 234.773 118.36C235.733 119.133 236.48 120.16 237.013 121.44C237.227 121.973 237.427 123.107 237.613 124.84C237.827 126.547 238.067 128.68 238.333 131.24C238.627 133.773 238.933 135.947 239.253 137.76C241.947 130.453 244.067 125.2 245.613 122C247.187 118.8 248.4 117.2 249.253 117.2ZM254.983 120.88C254.983 120.187 255.289 119.48 255.903 118.76C256.543 118.013 257.156 117.64 257.743 117.64C258.356 117.64 259.076 118.36 259.903 119.8C260.729 121.24 261.143 122.293 261.143 122.96C261.143 123.6 260.929 124.093 260.503 124.44C260.076 124.787 259.636 124.96 259.183 124.96C258.409 124.96 257.516 124.453 256.503 123.44C255.489 122.427 254.983 121.573 254.983 120.88ZM255.583 125.88C256.516 125.88 257.343 126.413 258.063 127.48C258.809 128.547 259.183 129.573 259.183 130.56C259.183 131.067 258.716 132.893 257.783 136.04C256.876 139.16 255.969 142.12 255.062 144.92C254.743 145.96 254.089 146.48 253.103 146.48C252.516 146.48 251.996 146.267 251.543 145.84C251.116 145.387 250.903 144.813 250.903 144.12C250.903 143.4 251.236 141.64 251.903 138.84C252.596 136.013 253.116 133.613 253.463 131.64C253.836 129.64 254.169 128.187 254.463 127.28C254.783 126.347 255.156 125.88 255.583 125.88ZM274.213 125.92C275.226 125.92 276.226 126.52 277.213 127.72C278.2 128.92 278.693 130 278.693 130.96C278.693 131.6 278.413 131.92 277.853 131.92C277.533 131.92 277.066 131.8 276.453 131.56C275.84 131.293 275.213 131.16 274.573 131.16C273.96 131.16 273.04 131.373 271.813 131.8C270.613 132.227 270.013 132.787 270.013 133.48C270.013 133.747 270.373 134.133 271.093 134.64C271.813 135.147 272.6 135.667 273.453 136.2C274.306 136.733 275.093 137.48 275.813 138.44C276.533 139.373 276.893 140.4 276.893 141.52C276.893 142.613 276.08 143.72 274.453 144.84C272.853 145.96 270.96 146.52 268.773 146.52C266.613 146.52 264.76 146.027 263.213 145.04C261.666 144.053 260.893 143.04 260.893 142C260.893 140.96 261.32 140.44 262.173 140.44C262.52 140.44 262.933 140.573 263.413 140.84C264.746 141.613 266.4 142 268.373 142C270.373 142 271.373 141.733 271.373 141.2C271.373 140.667 270.986 140.08 270.213 139.44C269.466 138.773 268.64 138.16 267.733 137.6C266.853 137.04 266.026 136.36 265.253 135.56C264.506 134.733 264.133 133.933 264.133 133.16C264.133 131.72 265.44 130.16 268.053 128.48C270.666 126.773 272.72 125.92 274.213 125.92ZM294.165 126.88C294.378 126.213 294.805 125.88 295.445 125.88C296.085 125.88 296.818 126.427 297.645 127.52C298.498 128.613 298.925 129.56 298.925 130.36C298.925 130.653 298.312 132.613 297.085 136.24C295.858 139.867 294.912 142.733 294.245 144.84C293.872 145.96 293.245 146.52 292.365 146.52C291.832 146.52 291.378 146.333 291.005 145.96C290.658 145.56 290.485 144.947 290.485 144.12C290.485 143.293 290.645 142.12 290.965 140.6C288.218 144.547 286.032 146.52 284.405 146.52C283.552 146.52 282.525 145.973 281.325 144.88C280.125 143.76 279.525 142.68 279.525 141.64C279.525 139.08 280.245 135.813 281.685 131.84C283.152 127.867 284.525 125.88 285.805 125.88C286.578 125.88 287.258 126.227 287.845 126.92C288.458 127.613 288.765 128.373 288.765 129.2C288.765 129.52 288.432 130.413 287.765 131.88C285.738 136.28 284.725 139.387 284.725 141.2C284.725 141.36 284.792 141.44 284.925 141.44C285.325 141.44 286.072 140.813 287.165 139.56C288.285 138.28 289.525 136.467 290.885 134.12C292.272 131.747 293.365 129.333 294.165 126.88ZM316.578 135.16C317.058 135.587 317.298 135.973 317.298 136.32C317.298 136.667 317.138 137.387 316.818 138.48C316.498 139.573 316.285 140.427 316.178 141.04C316.071 141.627 315.978 142.093 315.898 142.44C315.845 142.787 315.805 143.067 315.778 143.28C315.751 143.467 315.698 143.707 315.618 144C315.565 144.293 315.511 144.533 315.458 144.72C315.431 144.88 315.378 145.08 315.298 145.32C315.245 145.533 315.178 145.707 315.098 145.84C315.018 145.947 314.925 146.067 314.818 146.2C314.658 146.413 314.391 146.52 314.018 146.52C313.645 146.52 313.178 146.147 312.618 145.4C312.085 144.653 311.685 143.747 311.418 142.68C308.911 145.24 306.805 146.52 305.098 146.52C303.951 146.52 302.711 145.893 301.378 144.64C300.045 143.36 299.378 142.093 299.378 140.84C299.378 139.56 299.951 137.747 301.098 135.4C302.245 133.053 303.805 130.88 305.778 128.88C307.778 126.88 309.751 125.88 311.698 125.88C312.818 125.88 314.111 126.533 315.578 127.84C317.045 129.147 317.778 130.347 317.778 131.44C317.778 132.507 317.378 133.747 316.578 135.16ZM304.938 141.48C306.005 141.48 307.418 140.76 309.178 139.32C310.965 137.853 312.071 136.013 312.498 133.8C312.525 133.48 312.751 133.293 313.178 133.24C313.098 131.72 312.845 130.96 312.418 130.96C311.351 130.96 310.151 131.653 308.818 133.04C307.511 134.427 306.431 135.907 305.578 137.48C304.751 139.053 304.338 140.213 304.338 140.96C304.338 141.173 304.365 141.32 304.418 141.4C304.498 141.453 304.671 141.48 304.938 141.48ZM325.609 114.68C326.249 114.68 327.075 115.267 328.089 116.44C329.102 117.613 329.609 118.733 329.609 119.8C329.609 120.867 329.449 122.773 329.129 125.52C328.809 128.24 328.475 130.413 328.129 132.04C325.915 141.693 324.369 146.52 323.489 146.52C322.902 146.52 322.169 146.053 321.289 145.12C320.435 144.16 320.009 143.373 320.009 142.76C320.009 142.707 320.369 141.32 321.089 138.6C321.809 135.88 322.529 132.387 323.249 128.12C323.995 123.827 324.369 119.733 324.369 115.84C324.369 115.067 324.782 114.68 325.609 114.68ZM334.514 120.88C334.514 120.187 334.82 119.48 335.434 118.76C336.074 118.013 336.687 117.64 337.274 117.64C337.887 117.64 338.607 118.36 339.434 119.8C340.26 121.24 340.674 122.293 340.674 122.96C340.674 123.6 340.46 124.093 340.034 124.44C339.607 124.787 339.167 124.96 338.714 124.96C337.94 124.96 337.047 124.453 336.034 123.44C335.02 122.427 334.514 121.573 334.514 120.88ZM335.114 125.88C336.047 125.88 336.874 126.413 337.594 127.48C338.34 128.547 338.714 129.573 338.714 130.56C338.714 131.067 338.247 132.893 337.314 136.04C336.407 139.16 335.5 142.12 334.594 144.92C334.274 145.96 333.62 146.48 332.634 146.48C332.047 146.48 331.527 146.267 331.074 145.84C330.647 145.387 330.434 144.813 330.434 144.12C330.434 143.4 330.767 141.64 331.434 138.84C332.127 136.013 332.647 133.613 332.994 131.64C333.367 129.64 333.7 128.187 333.994 127.28C334.314 126.347 334.687 125.88 335.114 125.88ZM346.904 141.44L355.624 141.12C356.184 141.12 356.678 141.253 357.104 141.52C357.531 141.76 357.744 142.133 357.744 142.64C357.744 143.893 356.558 144.867 354.184 145.56C351.811 146.227 348.864 146.56 345.344 146.56C344.064 146.56 342.851 145.987 341.704 144.84C340.558 143.693 339.984 142.76 339.984 142.04C339.984 141.293 340.664 140.36 342.024 139.24C343.384 138.12 344.864 137.093 346.464 136.16C348.091 135.2 349.584 134.293 350.944 133.44C352.304 132.56 352.984 131.973 352.984 131.68C352.984 131.387 352.264 131.24 350.824 131.24C349.384 131.24 348.211 131.32 347.304 131.48C346.398 131.64 345.664 131.72 345.104 131.72C344.544 131.72 343.904 131.267 343.184 130.36C342.464 129.427 342.104 128.693 342.104 128.16C342.104 127.413 342.771 126.853 344.104 126.48C345.464 126.08 346.971 125.88 348.624 125.88C350.278 125.88 352.078 126.107 354.024 126.56C354.904 126.8 355.744 127.48 356.544 128.6C357.371 129.72 357.784 130.587 357.784 131.2C357.784 132.32 357.198 133.507 356.024 134.76C354.878 135.987 353.611 137.013 352.224 137.84C350.838 138.667 349.558 139.427 348.384 140.12C347.238 140.787 346.664 141.187 346.664 141.32C346.664 141.4 346.744 141.44 346.904 141.44ZM378.123 133.36C378.123 134.667 377.23 135.84 375.443 136.88C373.683 137.92 371.87 138.44 370.003 138.44C368.136 138.44 366.603 138.307 365.403 138.04C365.163 138.76 365.043 139.48 365.043 140.2C365.043 140.92 365.163 141.44 365.403 141.76C365.643 142.053 366.243 142.2 367.203 142.2C369.203 142.2 370.91 142.013 372.323 141.64C373.763 141.267 374.51 141.08 374.563 141.08C375.656 141.08 376.203 141.44 376.203 142.16C376.203 143.2 375.336 144.187 373.603 145.12C371.896 146.053 369.91 146.52 367.643 146.52C365.403 146.52 363.603 145.813 362.243 144.4C360.883 142.987 360.203 141.32 360.203 139.4C360.203 137.453 360.763 135.427 361.883 133.32C363.03 131.213 364.456 129.453 366.163 128.04C367.87 126.6 369.563 125.88 371.243 125.88C372.95 125.88 374.523 126.72 375.963 128.4C377.403 130.053 378.123 131.707 378.123 133.36ZM373.483 132.72C373.483 132.453 373.203 132.067 372.643 131.56C372.083 131.053 371.55 130.8 371.043 130.8C370.563 130.8 369.936 131.16 369.163 131.88C368.39 132.573 367.656 133.48 366.963 134.6C367.203 134.627 367.55 134.64 368.003 134.64C371.656 134.64 373.483 134 373.483 132.72ZM381.934 132.64L381.694 128.12C381.694 126.627 382.161 125.88 383.094 125.88C383.628 125.88 384.148 126.08 384.654 126.48C385.188 126.88 385.588 127.507 385.854 128.36C386.761 127.56 387.748 126.92 388.814 126.44C389.908 125.933 390.868 125.68 391.694 125.68C393.641 125.68 394.614 126.147 394.614 127.08C394.614 127.56 394.521 127.92 394.334 128.16C394.174 128.373 394.041 128.533 393.934 128.64C393.854 128.747 393.694 128.893 393.454 129.08C393.241 129.24 393.081 129.36 392.974 129.44C392.361 129.84 391.921 130.12 391.654 130.28C390.454 131.027 389.428 131.933 388.574 133C387.721 134.04 387.081 135.493 386.654 137.36C385.934 140.427 385.228 142.72 384.534 144.24C383.868 145.733 383.108 146.48 382.254 146.48C381.428 146.48 380.801 146.08 380.374 145.28C379.974 144.48 379.774 143.733 379.774 143.04C379.774 142.32 380.028 141.253 380.534 139.84C381.068 138.427 381.428 137.213 381.614 136.2C381.828 135.16 381.934 133.973 381.934 132.64Z" fill="#868686"/>
<g filter="url(#filter0_d_7_2)">
<rect x="26" y="15" width="152" height="153" rx="5" fill="white"/>
<rect x="26" y="15" width="152" height="153" rx="5" stroke="#ADADAD" stroke-width="2"/>
</g>
<rect x="110" y="151" width="18" height="16" fill="#808080"/>
<rect x="110" y="135" width="18" height="16" fill="#808080"/>
<rect x="110" y="119" width="18" height="16" fill="#808080"/>
<rect x="110" y="100" width="18" height="19" fill="#808080"/>
<rect x="43" y="68" width="18" height="16" fill="#808080"/>
<rect x="43" y="51" width="18" height="17" fill="#808080"/>
<rect x="144" y="100" width="18" height="17" fill="#04C92F"/>
<rect x="43" y="35" width="18" height="16" fill="#808080"/>
<rect x="43" y="15" width="18" height="20" fill="#808080"/>
<rect x="124" y="33" width="18" height="16" transform="rotate(90 124 33)" fill="#808080"/>
<rect x="110" y="66" width="18" height="16" transform="rotate(90 110 66)" fill="#808080"/>
<rect x="109" y="49" width="18" height="16" transform="rotate(90 109 49)" fill="#808080"/>
<rect x="141" y="33" width="18" height="17" transform="rotate(90 141 33)" fill="#808080"/>
<rect x="157" y="33" width="18" height="16" transform="rotate(90 157 33)" fill="#808080"/>
<rect x="177" y="33" width="18" height="20" transform="rotate(90 177 33)" fill="#808080"/>
<rect x="60" y="151" width="16" height="16" transform="rotate(90 60 151)" fill="#808080"/>
<rect x="76" y="151" width="16" height="16" transform="rotate(90 76 151)" fill="#808080"/>
<rect x="92" y="151" width="16" height="16" transform="rotate(90 92 151)" fill="#808080"/>
<rect x="110" y="151" width="16" height="18" transform="rotate(90 110 151)" fill="#808080"/>
<rect x="76" y="117" width="18" height="17" fill="#AFEEEE"/>
<rect x="76" y="134" width="18" height="17" fill="#98FB98"/>
<rect x="92" y="117" width="18" height="17" fill="#98FB98"/>
<rect x="58" y="134" width="18" height="17" fill="#98FB98"/>
<rect x="28" y="101" width="16" height="17" fill="#98FB98"/>
<rect x="28" y="117" width="16" height="17" fill="#98FB98"/>
<rect x="43" y="134" width="18" height="17" fill="#98FB98"/>
<rect x="61" y="67" width="18" height="17" fill="#98FB98"/>
<rect x="160" y="51" width="17" height="17" fill="#98FB98"/>
<rect x="159" y="68" width="18" height="17" fill="#98FB98"/>
<rect x="75" y="49" width="18" height="17" fill="#98FB98"/>
<rect x="28" y="84" width="18" height="17" fill="#98FB98"/>
<rect x="145" y="51" width="18" height="17" fill="#98FB98"/>
<rect x="127" y="51" width="18" height="17" fill="#98FB98"/>
<rect x="160" y="134" width="17" height="17" fill="#98FB98"/>
<rect x="145" y="134" width="18" height="17" fill="#98FB98"/>
<rect x="127" y="134" width="18" height="17" fill="#98FB98"/>
<rect x="110" y="51" width="18" height="17" fill="#98FB98"/>
<rect x="92" y="134" width="18" height="17" fill="#98FB98"/>
<rect x="28" y="134" width="17" height="17" fill="#98FB98"/>
<rect x="92" y="100" width="18" height="17" fill="#98FB98"/>
<rect x="76" y="101" width="18" height="16" fill="#AFEEEE"/>
<rect x="76" y="67" width="18" height="17" fill="#AFEEEE"/>
<rect x="110" y="67" width="18" height="17" fill="#AFEEEE"/>
<rect x="128" y="67" width="18" height="17" fill="#AFEEEE"/>
<rect x="143" y="67" width="18" height="17" fill="#AFEEEE"/>
<rect x="144" y="85" width="15" height="17" transform="rotate(90 144 85)" fill="#AFEEEE"/>
<rect x="161" y="85" width="15" height="17" transform="rotate(90 161 85)" fill="#AFEEEE"/>
<rect x="127" y="85" width="15" height="17" transform="rotate(90 127 85)" fill="#AFEEEE"/>
<rect x="177" y="85" width="15" height="16" transform="rotate(90 177 85)" fill="#AFEEEE"/>
<rect x="144" y="118" width="16" height="16" transform="rotate(90 144 118)" fill="#AFEEEE"/>
<rect x="161" y="118" width="16" height="16" transform="rotate(90 161 118)" fill="#AFEEEE"/>
<rect x="177" y="117" width="17" height="16" transform="rotate(90 177 117)" fill="#AFEEEE"/>
<rect x="177" y="101" width="16" height="16" transform="rotate(90 177 101)" fill="#AFEEEE"/>
<rect x="144" y="101" width="16" height="16" transform="rotate(90 144 101)" fill="#AFEEEE"/>
<rect x="77" y="85" width="15" height="17" transform="rotate(90 77 85)" fill="#AFEEEE"/>
<rect x="94" y="85" width="15" height="17" transform="rotate(90 94 85)" fill="#AFEEEE"/>
<rect x="77" y="101" width="16" height="18" transform="rotate(90 77 101)" fill="#AFEEEE"/>
<rect x="60" y="85" width="15" height="16" transform="rotate(90 60 85)" fill="#AFEEEE"/>
<rect x="60" y="101" width="16" height="16" transform="rotate(90 60 101)" fill="#AFEEEE"/>
<rect x="60" y="118" width="16" height="16" transform="rotate(90 60 118)" fill="#AFEEEE"/>
<rect x="110" y="85" width="15" height="16" transform="rotate(90 110 85)" fill="#AFEEEE"/>
<rect x="60" y="118" width="16" height="17" fill="#EE4400"/>
<rect x="144" y="100" width="18" height="17" fill="#04C92F"/>
<line x1="76.75" y1="168" x2="76.75" y2="15" stroke="#CCCCCC" stroke-width="0.5"/>
<line x1="127.75" y1="168" x2="127.75" y2="15" stroke="#CCCCCC" stroke-width="0.5"/>
<line x1="178" y1="117.25" x2="26" y2="117.25" stroke="#CCCCCC" stroke-width="0.5"/>
<line x1="178" y1="66.25" x2="26" y2="66.25" stroke="#CCCCCC" stroke-width="0.5"/>
<line x1="43.75" y1="65" x2="43.75" y2="17" stroke="#CCCCCC" stroke-width="0.5"/>
<line x1="59.75" y1="65" x2="59.75" y2="17" stroke="#CCCCCC" stroke-width="0.5"/>
<line x1="75.6863" y1="49.25" x2="28" y2="49.25" stroke="#CCCCCC" stroke-width="0.5"/>
<line x1="75.6863" y1="33.25" x2="28" y2="33.25" stroke="#CCCCCC" stroke-width="0.5"/>
<line x1="43.75" y1="116" x2="43.75" y2="68" stroke="#CCCCCC" stroke-width="0.5"/>
<line x1="59.75" y1="116" x2="59.75" y2="68" stroke="#CCCCCC" stroke-width="0.5"/>
<line x1="75.6863" y1="100.25" x2="28" y2="100.25" stroke="#CCCCCC" stroke-width="0.5"/>
<line x1="75.6863" y1="84.25" x2="28" y2="84.25" stroke="#CCCCCC" stroke-width="0.5"/>
<line x1="43.75" y1="166" x2="43.75" y2="118" stroke="#CCCCCC" stroke-width="0.5"/>
<line x1="59.75" y1="166" x2="59.75" y2="118" stroke="#CCCCCC" stroke-width="0.5"/>
<line x1="75.6863" y1="150.25" x2="28" y2="150.25" stroke="#CCCCCC" stroke-width="0.5"/>
<line x1="75.6863" y1="134.25" x2="28" y2="134.25" stroke="#CCCCCC" stroke-width="0.5"/>
<line x1="93.75" y1="65" x2="93.75" y2="17" stroke="#CCCCCC" stroke-width="0.5"/>
<line x1="109.75" y1="65" x2="109.75" y2="17" stroke="#CCCCCC" stroke-width="0.5"/>
<line x1="125.686" y1="49.25" x2="78" y2="49.25" stroke="#CCCCCC" stroke-width="0.5"/>
<line x1="125.686" y1="33.25" x2="78" y2="33.25" stroke="#CCCCCC" stroke-width="0.5"/>
<line x1="93.75" y1="116" x2="93.75" y2="68" stroke="#CCCCCC" stroke-width="0.5"/>
<line x1="109.75" y1="116" x2="109.75" y2="68" stroke="#CCCCCC" stroke-width="0.5"/>
<line x1="125.686" y1="100.25" x2="78" y2="100.25" stroke="#CCCCCC" stroke-width="0.5"/>
<line x1="125.686" y1="84.25" x2="78" y2="84.25" stroke="#CCCCCC" stroke-width="0.5"/>
<line x1="93.75" y1="166" x2="93.75" y2="118" stroke="#CCCCCC" stroke-width="0.5"/>
<line x1="109.75" y1="166" x2="109.75" y2="118" stroke="#CCCCCC" stroke-width="0.5"/>
<line x1="125.686" y1="150.25" x2="78" y2="150.25" stroke="#CCCCCC" stroke-width="0.5"/>
<line x1="125.686" y1="134.25" x2="78" y2="134.25" stroke="#CCCCCC" stroke-width="0.5"/>
<line x1="144.75" y1="65" x2="144.75" y2="17" stroke="#CCCCCC" stroke-width="0.5"/>
<line x1="160.75" y1="65" x2="160.75" y2="17" stroke="#CCCCCC" stroke-width="0.5"/>
<line x1="176.686" y1="49.25" x2="129" y2="49.25" stroke="#CCCCCC" stroke-width="0.5"/>
<line x1="176.686" y1="33.25" x2="129" y2="33.25" stroke="#CCCCCC" stroke-width="0.5"/>
<line x1="144.75" y1="116" x2="144.75" y2="68" stroke="#CCCCCC" stroke-width="0.5"/>
<line x1="160.75" y1="116" x2="160.75" y2="68" stroke="#CCCCCC" stroke-width="0.5"/>
<line x1="176.686" y1="100.25" x2="129" y2="100.25" stroke="#CCCCCC" stroke-width="0.5"/>
<line x1="176.686" y1="84.25" x2="129" y2="84.25" stroke="#CCCCCC" stroke-width="0.5"/>
<line x1="144.75" y1="166" x2="144.75" y2="118" stroke="#CCCCCC" stroke-width="0.5"/>
<line x1="160.75" y1="166" x2="160.75" y2="118" stroke="#CCCCCC" stroke-width="0.5"/>
<line x1="176.686" y1="150.25" x2="129" y2="150.25" stroke="#CCCCCC" stroke-width="0.5"/>
<line x1="176.686" y1="134.25" x2="129" y2="134.25" stroke="#CCCCCC" stroke-width="0.5"/>
<path d="M68 127.5V109H85V93H152.5V109" stroke="white" stroke-width="5" stroke-linecap="round"/>
<path d="M68 127.5V109H85V93H152.5V109" stroke="#FFD600" stroke-width="3" stroke-linecap="round"/>
</g>
<defs>
<filter id="filter0_d_7_2" x="10" y="-1" width="184" height="185" filterUnits="userSpaceOnUse" color-interpolation-filters="sRGB">
<feFlood flood-opacity="0" result="BackgroundImageFix"/>
<feColorMatrix in="SourceAlpha" type="matrix" values="0 0 0 0 0 0 0 0 0 0 0 0 0 0 0 0 0 0 127 0" result="hardAlpha"/>
<feMorphology radius="5" operator="dilate" in="SourceAlpha" result="effect1_dropShadow_7_2"/>
<feOffset/>
<feGaussianBlur stdDeviation="5"/>
<feComposite in2="hardAlpha" operator="out"/>
<feColorMatrix type="matrix" values="0 0 0 0 0 0 0 0 0 0 0 0 0 0 0 0 0 0 0.25 0"/>
<feBlend mode="normal" in2="BackgroundImageFix" result="effect1_dropShadow_7_2"/>
<feBlend mode="normal" in="SourceGraphic" in2="effect1_dropShadow_7_2" result="shape"/>
</filter>
<clipPath id="clip0_7_2">
<rect width="444" height="182" fill="white"/>
</clipPath>
</defs>
</svg>
